<?xml version="1.0" standalone="no"?>
<!DOCTYPE svg PUBLIC "-//W3C//DTD SVG 20010904//EN"
 "http://www.w3.org/TR/2001/REC-SVG-20010904/DTD/svg10.dtd">
<svg version="1.0" xmlns="http://www.w3.org/2000/svg"
 width="700.000000pt" height="700.000000pt" viewBox="0 0 700.000000 700.000000"
 preserveAspectRatio="xMidYMid meet">
<metadata>
Created by potrace 1.11, written by Peter Selinger 2001-2013
</metadata>
<g transform="translate(0.000000,700.000000) scale(0.100000,-0.100000)"
fill="#000000" stroke="none">
<path d="M2207 6985 c-580 -70 -1093 -325 -1502 -746 -392 -403 -624 -894
-690 -1456 -22 -188 -22 -2377 0 -2564 20 -175 59 -350 111 -506 313 -939
1148 -1606 2133 -1703 139 -14 2343 -14 2482 0 1091 107 1988 914 2209 1985
49 236 50 275 50 1505 0 954 -3 1177 -15 1281 -68 582 -321 1098 -737 1505
-407 398 -899 633 -1465 699 -176 21 -2406 20 -2576 0z m2564 -1364 c445 -101
790 -437 906 -881 34 -128 43 -353 19 -486 -44 -256 -157 -477 -335 -655 -47
-47 -113 -104 -147 -126 l-61 -42 -38 52 c-102 138 -214 242 -357 334 l-77 49
47 17 c166 60 320 234 366 413 20 79 21 222 1 299 -70 269 -314 455 -594 455
-220 -1 -431 -133 -532 -333 -17 -32 -43 -108 -59 -170 -149 -574 -486 -1802
-510 -1860 -146 -351 -479 -619 -872 -703 -116 -25 -353 -25 -468 -1 -376 81
-675 309 -844 645 -177 351 -165 780 30 1129 172 308 482 526 844 594 98 19
339 16 435 -5 89 -20 528 -136 534 -142 4 -4 -145 -564 -152 -571 -3 -2 -106
23 -228 56 -334 89 -380 95 -512 65 -405 -92 -601 -541 -392 -900 16 -27 60
-81 99 -120 242 -241 645 -228 872 30 50 56 121 191 129 246 7 42 452 1706
464 1735 5 11 21 56 36 100 59 176 161 332 306 471 192 183 405 284 694 328
68 10 312 -4 396 -23z m-613 -1707 c277 -74 337 -95 455 -156 291 -151 506
-429 594 -767 31 -119 42 -336 24 -461 -81 -554 -523 -973 -1086 -1030 -400
-41 -825 148 -1067 473 l-58 78 78 58 c103 77 224 206 300 319 62 93 62 93 72
65 52 -138 175 -277 300 -336 41 -19 100 -41 130 -48 77 -19 222 -16 295 5
168 49 312 168 383 317 51 106 66 182 60 307 -16 318 -278 561 -603 562 -101
0 -178 -19 -277 -69 -43 -21 -78 -35 -78 -30 0 8 196 742 205 767 2 6 9 12 15
12 6 0 122 -30 258 -66z"/>
</g>
</svg>
